# xmcd
#
# Track frame offsets:
#	150
#	12857
#	20980
#	31675
#	43540
#	56365
#	64027
#	75165
#	84872
#	94240
#	106930
#	113887
#	124515
#	133872
#	144327
#	155972
#	165932
#	178040
#	189335
#	198485
#	208515
#	217970
#	226840
#
# Disc length: 3151 seconds
#
# Revision: 1
# Processed by: cddbd v1.5.2PL0 Copyright (c) Steve Scherf et al.
# Submitted via: audiograbber 1.83.01
#
DISCID=250c4d17
DTITLE=Various Artist - Nashville Rockabilly and Country
DYEAR=1995
DGENRE=Country
TTITLE0=Johnny Dollar - Drilling Rig Boogie
TTITLE1=The Pell Brothers - Let's Rock Tonight
TTITLE2=Kent Westbury - I've Been Under The Weather
TTITLE3=Curtis Gordon - My Broken Heart Still Knows
TTITLE4=Curtis Gordon - Each Time You Go
TTITLE5=Curtis Gordon - Oh Lonely Heart
TTITLE6=Curtis Gordon - For The Last Time
TTITLE7=Curtis Gordon - From Memphis To New Orleans
TTITLE8=Bobby Sykes - A Touch Of Loving
TTITLE9=Bobby Sykes - Until You're In My Arms
TTITLE10=Stonewall Jackson - Run Baby Run
TTITLE11=Judy Carmen - Old Enough To Rock'n'roll
TTITLE12=Judy Carmen - Save A Little Lovin' For Me
TTITLE13=Johnny Bailes - Sittin' At Home With The Blues
TTITLE14=Johnny Bailes - I Don't Believe You Love Me
TTITLE15=Danny Dill - One At A Table For Two
TTITLE16=Judy Lynn - See If I Care
TTITLE17=Judy Lynn - Driftin'
TTITLE18=Judy Lynn - Someday You'll Be Free
TTITLE19=Pat Kelly - That's What I've Been Told
TTITLE20=Pat Kelly - Havin' A Ball
TTITLE21=Johnny Ferguson - What A Sad Day That Will Be
TTITLE22=Johnny Ferguson - Candy Love
EXTD=
EXTT0=
EXTT1=
EXTT2=
EXTT3=
EXTT4=
EXTT5=
EXTT6=
EXTT7=
EXTT8=
EXTT9=
EXTT10=
EXTT11=
EXTT12=
EXTT13=
EXTT14=
EXTT15=
EXTT16=
EXTT17=
EXTT18=
EXTT19=
EXTT20=
EXTT21=
EXTT22=
PLAYORDER=
